<svg width="64" height="64" viewBox="0 0 64 64" fill="none" xmlns="http://www.w3.org/2000/svg">
<path d="M41 16C40.7348 16 40.4804 16.1054 40.2929 16.2929C40.1054 16.4804 40 16.7348 40 17C40 17.2652 40.1054 17.5196 40.2929 17.7071C40.4804 17.8946 40.7348 18 41 18H44V23.5H43C42.7348 23.5 42.4804 23.6054 42.2929 23.7929C42.1054 23.9804 42 24.2348 42 24.5C42 24.7652 42.1054 25.0196 42.2929 25.2071C42.4804 25.3946 42.7348 25.5 43 25.5H44V31H41C40.7348 31 40.4804 31.1054 40.2929 31.2929C40.1054 31.4804 40 31.7348 40 32C40 32.2652 40.1054 32.5196 40.2929 32.7071C40.4804 32.8946 40.7348 33 41 33H44V38.5H43C42.7348 38.5 42.4804 38.6054 42.2929 38.7929C42.1054 38.9804 42 39.2348 42 39.5C42 39.7652 42.1054 40.0196 42.2929 40.2071C42.4804 40.3946 42.7348 40.5 43 40.5H44V46H41C40.7348 46 40.4804 46.1054 40.2929 46.2929C40.1054 46.4804 40 46.7348 40 47C40 47.2652 40.1054 47.5196 40.2929 47.7071C40.4804 47.8946 40.7348 48 41 48H45C45.2652 48 45.5196 47.8946 45.7071 47.7071C45.8946 47.5196 46 47.2652 46 47V17C46 16.7348 45.8946 16.4804 45.7071 16.2929C45.5196 16.1054 45.2652 16 45 16H41ZM28 19L28.728 18.314C28.6345 18.2147 28.5217 18.1356 28.3965 18.0815C28.2713 18.0275 28.1364 17.9996 28 17.9996C27.8636 17.9996 27.7287 18.0275 27.6035 18.0815C27.4783 18.1356 27.3655 18.2147 27.272 18.314L27.268 18.318L27.256 18.332L27.212 18.378L27.052 18.554C26.1684 19.536 25.3185 20.5479 24.504 21.588C22.966 23.554 21.076 26.238 19.734 29.042C18.736 31.128 18 33.364 18 35.466C18 41.228 22.424 46 28 46C33.576 46 38 41.228 38 35.466C38 33.366 37.264 31.128 36.266 29.042C34.924 26.238 33.034 23.554 31.496 21.588C30.6324 20.4857 29.7291 19.415 28.788 18.378L28.744 18.332L28.732 18.318L28.728 18.316L28 19ZM27.968 20.532L28 20.494L28.032 20.532C28.512 21.08 29.176 21.866 29.92 22.82C31.142 24.382 32.56 26.372 33.722 28.474H22.28C23.44 26.372 24.86 24.382 26.08 22.82C26.826 21.866 27.49 21.08 27.968 20.532ZM20 35.466C20 33.956 20.488 32.242 21.276 30.474H34.724C35.514 32.242 36 33.956 36 35.466C36 40.234 32.364 44 28 44C23.636 44 20 40.234 20 35.466Z" fill="white"/>
</svg>
