<svg width="64" height="64" viewBox="0 0 64 64" fill="none" xmlns="http://www.w3.org/2000/svg">
<path d="M41 20C39.6739 20 38.4021 20.5268 37.4645 21.4645C36.5268 22.4022 36 23.6739 36 25C36 25.2652 35.8946 25.5196 35.7071 25.7071C35.5196 25.8946 35.2652 26 35 26C34.7348 26 34.4804 25.8946 34.2929 25.7071C34.1054 25.5196 34 25.2652 34 25C34 23.6155 34.4105 22.2622 35.1797 21.111C35.9489 19.9599 37.0421 19.0627 38.3212 18.5328C39.6003 18.003 41.0078 17.8644 42.3656 18.1345C43.7235 18.4046 44.9708 19.0713 45.9497 20.0503C46.9287 21.0292 47.5954 22.2765 47.8655 23.6344C48.1356 24.9922 47.997 26.3997 47.4672 27.6788C46.9373 28.9579 46.0401 30.0511 44.889 30.8203C43.7378 31.5895 42.3845 32 41 32H17C16.7348 32 16.4804 31.8946 16.2929 31.7071C16.1054 31.5196 16 31.2652 16 31C16 30.7348 16.1054 30.4804 16.2929 30.2929C16.4804 30.1054 16.7348 30 17 30H41C42.3261 30 43.5979 29.4732 44.5355 28.5355C45.4732 27.5979 46 26.3261 46 25C46 23.6739 45.4732 22.4022 44.5355 21.4645C43.5979 20.5268 42.3261 20 41 20ZM27 22C26.4696 22 25.9609 22.2107 25.5858 22.5858C25.2107 22.9609 25 23.4696 25 24C25 24.2652 24.8946 24.5196 24.7071 24.7071C24.5196 24.8946 24.2652 25 24 25C23.7348 25 23.4804 24.8946 23.2929 24.7071C23.1054 24.5196 23 24.2652 23 24C23 23.2089 23.2346 22.4355 23.6741 21.7777C24.1136 21.1199 24.7384 20.6072 25.4693 20.3045C26.2002 20.0017 27.0044 19.9225 27.7804 20.0769C28.5563 20.2312 29.269 20.6122 29.8284 21.1716C30.3878 21.731 30.7688 22.4437 30.9231 23.2196C31.0775 23.9956 30.9983 24.7998 30.6955 25.5307C30.3928 26.2616 29.8801 26.8864 29.2223 27.3259C28.5645 27.7654 27.7911 28 27 28H17C16.7348 28 16.4804 27.8946 16.2929 27.7071C16.1054 27.5196 16 27.2652 16 27C16 26.7348 16.1054 26.4804 16.2929 26.2929C16.4804 26.1054 16.7348 26 17 26H27C27.5304 26 28.0391 25.7893 28.4142 25.4142C28.7893 25.0391 29 24.5304 29 24C29 23.4696 28.7893 22.9609 28.4142 22.5858C28.0391 22.2107 27.5304 22 27 22ZM16 35C16 34.7348 16.1054 34.4804 16.2929 34.2929C16.4804 34.1054 16.7348 34 17 34H37.084C38.2707 34 39.4307 34.3519 40.4174 35.0112C41.4041 35.6705 42.1732 36.6075 42.6273 37.7039C43.0814 38.8003 43.2002 40.0067 42.9687 41.1705C42.7372 42.3344 42.1658 43.4035 41.3266 44.2426C40.4875 45.0818 39.4184 45.6532 38.2545 45.8847C37.0907 46.1162 35.8843 45.9974 34.7879 45.5433C33.6915 45.0892 32.7545 44.3201 32.0952 43.3334C31.4359 42.3467 31.084 41.1867 31.084 40C31.084 39.7348 31.1894 39.4804 31.3769 39.2929C31.5644 39.1054 31.8188 39 32.084 39C32.3492 39 32.6036 39.1054 32.7911 39.2929C32.9786 39.4804 33.084 39.7348 33.084 40C33.084 40.7911 33.3186 41.5645 33.7581 42.2223C34.1976 42.8801 34.8224 43.3928 35.5533 43.6955C36.2842 43.9983 37.0884 44.0775 37.8644 43.9231C38.6403 43.7688 39.353 43.3878 39.9124 42.8284C40.4718 42.269 40.8528 41.5563 41.0071 40.7804C41.1615 40.0044 41.0823 39.2002 40.7795 38.4693C40.4768 37.7384 39.9641 37.1137 39.3063 36.6741C38.6485 36.2346 37.8751 36 37.084 36H17C16.7348 36 16.4804 35.8946 16.2929 35.7071C16.1054 35.5196 16 35.2652 16 35Z" fill="white"/>
</svg>
