<!DOCTYPE svg PUBLIC "-//W3C//DTD SVG 1.1//EN" "http://www.w3.org/Graphics/SVG/1.1/DTD/svg11.dtd">
<!-- Uploaded to: SVG Repo, www.svgrepo.com, Transformed by: SVG Repo Mixer Tools -->
<svg version="1.1" id="Uploaded to svgrepo.com" xmlns="http://www.w3.org/2000/svg" xmlns:xlink="http://www.w3.org/1999/xlink" width="800px" height="800px" viewBox="0 0 32 32" xml:space="preserve" fill="#ff9966" stroke="#ff9966">
<g id="SVGRepo_bgCarrier" stroke-width="0"/>
<g id="SVGRepo_tracerCarrier" stroke-linecap="round" stroke-linejoin="round"/>
<g id="SVGRepo_iconCarrier"> <style type="text/css"> .blueprint_een{fill:#ff9966;} </style> <path class="blueprint_een" d="M26.712,2.298C26.523,2.106,26.266,2,26,2c-0.055,0-0.11,0.004-0.164,0.014l-4.991,0.832 c-0.9,0.15-1.765,0.429-2.583,0.833c-0.297-0.506-0.625-0.984-0.978-1.426l-1.502-1.877C15.591,0.138,15.304,0,15,0 s-0.591,0.138-0.781,0.375l-1.502,1.877c-0.778,0.972-1.398,2.05-1.852,3.215c-0.877-0.361-1.791-0.61-2.73-0.745L3.141,4.01 C3.094,4.003,3.047,4,3,4C2.735,4,2.478,4.105,2.289,4.297C2.066,4.522,1.964,4.839,2.012,5.152l0.632,4.105 C3.256,13.241,5.815,16.454,9.275,18H8c-0.552,0-1,0.448-1,1v3c0,0.552,0.448,1,1,1h1.242l0.5,4H9c-0.552,0-1,0.448-1,1v3 c0,0.552,0.448,1,1,1h14c0.552,0,1-0.448,1-1v-3c0-0.552-0.448-1-1-1h-0.742l0.5-4H24c0.552,0,1-0.448,1-1v-3c0-0.552-0.448-1-1-1 h-6v-1v-0.902v-1.151c4.1-0.436,7.484-3.521,8.236-7.655l0.748-4.113C27.042,2.859,26.941,2.53,26.712,2.298z M24.268,6.934 C23.629,10.449,20.573,13,17,13h-0.475c-0.298-0.962-0.731-1.866-1.278-2.691c0.697-2.799,2.963-4.997,5.927-5.491l3.589-0.598 L24.268,6.934z M22,30H10v-1h1h10h1V30z M20.117,28h-8.234l-0.75-6h9.734L20.117,28z M23,21h-1H10H9v-1h5h3h6V21z M4.193,6.181 l3.659,0.523C12.497,7.367,16,11.406,16,16.098V19h-1l0-1l0-1h-1c-4.718,0-8.662-3.384-9.38-8.047L4.193,6.181z M15,2.601 l0.721,0.901c0.533,0.666,0.947,1.409,1.296,2.18c-1.141,0.958-2.01,2.209-2.514,3.629c-0.618-0.728-1.333-1.375-2.13-1.913 c0.363-1.411,0.989-2.749,1.906-3.896L15,2.601z"/> </g>
</svg>